<mxfile host="app.diagrams.net" modified="2022-03-24T17:38:46.660Z" agent="5.0 (Macintosh; Intel Mac OS X 10_15_7) AppleWebKit/537.36 (KHTML, like Gecko) Chrome/99.0.4844.83 Safari/537.36" etag="seKSI0hKScZc6Sz-2yEK" version="17.2.1" type="github">
  <diagram id="R2lEEEUBdFMjLlhIrx00" name="Page-1">
    <mxGraphModel dx="1186" dy="521" grid="1" gridSize="10" guides="1" tooltips="1" connect="1" arrows="1" fold="1" page="1" pageScale="1" pageWidth="850" pageHeight="1100" math="0" shadow="0" extFonts="Permanent Marker^https://fonts.googleapis.com/css?family=Permanent+Marker">
      <root>
        <mxCell id="0" />
        <mxCell id="1" parent="0" />
        <mxCell id="bjYeG8qZpr5Ssxr_zlGX-1" value="Gateway" style="swimlane;fontStyle=0;childLayout=stackLayout;horizontal=1;startSize=26;fillColor=none;horizontalStack=0;resizeParent=1;resizeParentMax=0;resizeLast=0;collapsible=1;marginBottom=0;" parent="1" vertex="1">
          <mxGeometry x="310" y="50" width="140" height="78" as="geometry" />
        </mxCell>
        <mxCell id="bjYeG8qZpr5Ssxr_zlGX-2" value="+ WIFI" style="text;strokeColor=none;fillColor=none;align=left;verticalAlign=top;spacingLeft=4;spacingRight=4;overflow=hidden;rotatable=0;points=[[0,0.5],[1,0.5]];portConstraint=eastwest;" parent="bjYeG8qZpr5Ssxr_zlGX-1" vertex="1">
          <mxGeometry y="26" width="140" height="26" as="geometry" />
        </mxCell>
        <mxCell id="bjYeG8qZpr5Ssxr_zlGX-3" value="+ broker" style="text;strokeColor=none;fillColor=none;align=left;verticalAlign=top;spacingLeft=4;spacingRight=4;overflow=hidden;rotatable=0;points=[[0,0.5],[1,0.5]];portConstraint=eastwest;" parent="bjYeG8qZpr5Ssxr_zlGX-1" vertex="1">
          <mxGeometry y="52" width="140" height="26" as="geometry" />
        </mxCell>
        <mxCell id="bjYeG8qZpr5Ssxr_zlGX-5" value="Client 1" style="swimlane;fontStyle=0;childLayout=stackLayout;horizontal=1;startSize=26;fillColor=none;horizontalStack=0;resizeParent=1;resizeParentMax=0;resizeLast=0;collapsible=1;marginBottom=0;" parent="1" vertex="1">
          <mxGeometry x="530" y="24" width="140" height="78" as="geometry" />
        </mxCell>
        <mxCell id="bjYeG8qZpr5Ssxr_zlGX-6" value="+ /loc/RSSI/get" style="text;strokeColor=none;fillColor=none;align=left;verticalAlign=top;spacingLeft=4;spacingRight=4;overflow=hidden;rotatable=0;points=[[0,0.5],[1,0.5]];portConstraint=eastwest;" parent="bjYeG8qZpr5Ssxr_zlGX-5" vertex="1">
          <mxGeometry y="26" width="140" height="26" as="geometry" />
        </mxCell>
        <mxCell id="bjYeG8qZpr5Ssxr_zlGX-7" value="+Mac Address" style="text;strokeColor=none;fillColor=none;align=left;verticalAlign=top;spacingLeft=4;spacingRight=4;overflow=hidden;rotatable=0;points=[[0,0.5],[1,0.5]];portConstraint=eastwest;" parent="bjYeG8qZpr5Ssxr_zlGX-5" vertex="1">
          <mxGeometry y="52" width="140" height="26" as="geometry" />
        </mxCell>
        <mxCell id="bjYeG8qZpr5Ssxr_zlGX-8" value="Client 2" style="swimlane;fontStyle=0;childLayout=stackLayout;horizontal=1;startSize=26;fillColor=none;horizontalStack=0;resizeParent=1;resizeParentMax=0;resizeLast=0;collapsible=1;marginBottom=0;" parent="1" vertex="1">
          <mxGeometry x="590" y="180" width="140" height="100" as="geometry">
            <mxRectangle x="450" y="320" width="70" height="26" as="alternateBounds" />
          </mxGeometry>
        </mxCell>
        <mxCell id="bjYeG8qZpr5Ssxr_zlGX-9" value="+ /loc/RSSI/send" style="text;strokeColor=none;fillColor=none;align=left;verticalAlign=top;spacingLeft=4;spacingRight=4;overflow=hidden;rotatable=0;points=[[0,0.5],[1,0.5]];portConstraint=eastwest;" parent="bjYeG8qZpr5Ssxr_zlGX-8" vertex="1">
          <mxGeometry y="26" width="140" height="26" as="geometry" />
        </mxCell>
        <mxCell id="bjYeG8qZpr5Ssxr_zlGX-10" value="+Mac Address&#xa;&#xa;+ RSSI" style="text;strokeColor=none;fillColor=none;align=left;verticalAlign=top;spacingLeft=4;spacingRight=4;overflow=hidden;rotatable=0;points=[[0,0.5],[1,0.5]];portConstraint=eastwest;" parent="bjYeG8qZpr5Ssxr_zlGX-8" vertex="1">
          <mxGeometry y="52" width="140" height="48" as="geometry" />
        </mxCell>
        <mxCell id="bjYeG8qZpr5Ssxr_zlGX-14" style="edgeStyle=orthogonalEdgeStyle;rounded=0;orthogonalLoop=1;jettySize=auto;html=1;exitX=0;exitY=0.5;exitDx=0;exitDy=0;entryX=0.907;entryY=1.154;entryDx=0;entryDy=0;entryPerimeter=0;" parent="1" source="bjYeG8qZpr5Ssxr_zlGX-6" target="bjYeG8qZpr5Ssxr_zlGX-3" edge="1">
          <mxGeometry relative="1" as="geometry" />
        </mxCell>
        <mxCell id="bjYeG8qZpr5Ssxr_zlGX-15" style="edgeStyle=orthogonalEdgeStyle;rounded=0;orthogonalLoop=1;jettySize=auto;html=1;entryX=0;entryY=0.313;entryDx=0;entryDy=0;entryPerimeter=0;" parent="1" source="bjYeG8qZpr5Ssxr_zlGX-3" target="bjYeG8qZpr5Ssxr_zlGX-10" edge="1">
          <mxGeometry relative="1" as="geometry" />
        </mxCell>
        <mxCell id="b2WKPJ6iu833aEgz57b8-2" style="edgeStyle=orthogonalEdgeStyle;rounded=0;orthogonalLoop=1;jettySize=auto;html=1;exitX=0.25;exitY=0;exitDx=0;exitDy=0;entryX=0.469;entryY=0.962;entryDx=0;entryDy=0;entryPerimeter=0;" parent="1" source="bjYeG8qZpr5Ssxr_zlGX-16" target="bjYeG8qZpr5Ssxr_zlGX-24" edge="1">
          <mxGeometry relative="1" as="geometry" />
        </mxCell>
        <mxCell id="bjYeG8qZpr5Ssxr_zlGX-16" value="Client 3" style="swimlane;fontStyle=0;childLayout=stackLayout;horizontal=1;startSize=26;fillColor=none;horizontalStack=0;resizeParent=1;resizeParentMax=0;resizeLast=0;collapsible=1;marginBottom=0;" parent="1" vertex="1">
          <mxGeometry x="120" y="220" width="140" height="100" as="geometry">
            <mxRectangle x="450" y="320" width="70" height="26" as="alternateBounds" />
          </mxGeometry>
        </mxCell>
        <mxCell id="bjYeG8qZpr5Ssxr_zlGX-17" value="+ /loc/pos" style="text;strokeColor=none;fillColor=none;align=left;verticalAlign=top;spacingLeft=4;spacingRight=4;overflow=hidden;rotatable=0;points=[[0,0.5],[1,0.5]];portConstraint=eastwest;" parent="bjYeG8qZpr5Ssxr_zlGX-16" vertex="1">
          <mxGeometry y="26" width="140" height="26" as="geometry" />
        </mxCell>
        <mxCell id="bjYeG8qZpr5Ssxr_zlGX-18" value="+Mac Address&#xa;&#xa;+ (x,y) for wio terminal" style="text;strokeColor=none;fillColor=none;align=left;verticalAlign=top;spacingLeft=4;spacingRight=4;overflow=hidden;rotatable=0;points=[[0,0.5],[1,0.5]];portConstraint=eastwest;" parent="bjYeG8qZpr5Ssxr_zlGX-16" vertex="1">
          <mxGeometry y="52" width="140" height="48" as="geometry" />
        </mxCell>
        <mxCell id="b2WKPJ6iu833aEgz57b8-1" style="edgeStyle=orthogonalEdgeStyle;rounded=0;orthogonalLoop=1;jettySize=auto;html=1;exitX=1;exitY=0.25;exitDx=0;exitDy=0;entryX=0;entryY=0.5;entryDx=0;entryDy=0;" parent="1" source="bjYeG8qZpr5Ssxr_zlGX-23" target="bjYeG8qZpr5Ssxr_zlGX-2" edge="1">
          <mxGeometry relative="1" as="geometry" />
        </mxCell>
        <mxCell id="bjYeG8qZpr5Ssxr_zlGX-23" value="Wio Terminal" style="swimlane;fontStyle=0;childLayout=stackLayout;horizontal=1;startSize=26;fillColor=none;horizontalStack=0;resizeParent=1;resizeParentMax=0;resizeLast=0;collapsible=1;marginBottom=0;" parent="1" vertex="1">
          <mxGeometry x="70" y="80" width="110" height="52" as="geometry" />
        </mxCell>
        <mxCell id="bjYeG8qZpr5Ssxr_zlGX-26" value="Client 4" style="swimlane;fontStyle=0;childLayout=stackLayout;horizontal=1;startSize=26;fillColor=none;horizontalStack=0;resizeParent=1;resizeParentMax=0;resizeLast=0;collapsible=1;marginBottom=0;" parent="1" vertex="1">
          <mxGeometry x="300" y="230" width="140" height="52" as="geometry" />
        </mxCell>
        <mxCell id="bjYeG8qZpr5Ssxr_zlGX-27" value="+ /loc/actual(feet)" style="text;strokeColor=none;fillColor=none;align=left;verticalAlign=top;spacingLeft=4;spacingRight=4;overflow=hidden;rotatable=0;points=[[0,0.5],[1,0.5]];portConstraint=eastwest;" parent="bjYeG8qZpr5Ssxr_zlGX-26" vertex="1">
          <mxGeometry y="26" width="140" height="26" as="geometry" />
        </mxCell>
        <mxCell id="b2WKPJ6iu833aEgz57b8-3" style="edgeStyle=orthogonalEdgeStyle;rounded=0;orthogonalLoop=1;jettySize=auto;html=1;exitX=0;exitY=0.5;exitDx=0;exitDy=0;entryX=1.014;entryY=0.646;entryDx=0;entryDy=0;entryPerimeter=0;" parent="1" source="bjYeG8qZpr5Ssxr_zlGX-28" target="bjYeG8qZpr5Ssxr_zlGX-18" edge="1">
          <mxGeometry relative="1" as="geometry" />
        </mxCell>
        <mxCell id="b2WKPJ6iu833aEgz57b8-5" style="edgeStyle=orthogonalEdgeStyle;rounded=0;orthogonalLoop=1;jettySize=auto;html=1;exitX=0.5;exitY=0;exitDx=0;exitDy=0;entryX=0.621;entryY=1;entryDx=0;entryDy=0;entryPerimeter=0;" parent="1" source="bjYeG8qZpr5Ssxr_zlGX-28" target="bjYeG8qZpr5Ssxr_zlGX-27" edge="1">
          <mxGeometry relative="1" as="geometry" />
        </mxCell>
        <mxCell id="bjYeG8qZpr5Ssxr_zlGX-28" value="Onion Omega 2+" style="html=1;" parent="1" vertex="1">
          <mxGeometry x="370" y="380" width="110" height="50" as="geometry" />
        </mxCell>
        <mxCell id="bjYeG8qZpr5Ssxr_zlGX-24" value="+ BLE" style="text;strokeColor=none;fillColor=none;align=left;verticalAlign=top;spacingLeft=4;spacingRight=4;overflow=hidden;rotatable=0;points=[[0,0.5],[1,0.5]];portConstraint=eastwest;" parent="1" vertex="1">
          <mxGeometry x="70" y="106" width="130" height="26" as="geometry" />
        </mxCell>
        <mxCell id="b2WKPJ6iu833aEgz57b8-7" style="edgeStyle=orthogonalEdgeStyle;rounded=0;orthogonalLoop=1;jettySize=auto;html=1;exitX=0;exitY=0.5;exitDx=0;exitDy=0;entryX=1;entryY=0.5;entryDx=0;entryDy=0;" parent="1" source="bjYeG8qZpr5Ssxr_zlGX-10" target="bjYeG8qZpr5Ssxr_zlGX-28" edge="1">
          <mxGeometry relative="1" as="geometry" />
        </mxCell>
      </root>
    </mxGraphModel>
  </diagram>
</mxfile>
